<svg version="1.0" xmlns="http://www.w3.org/2000/svg"
width="24.000000pt" height="24.000000pt" viewBox="0 0 1280.000000 1206.000000"
preserveAspectRatio="xMidYMid meet">
<g transform="translate(0.000000,1206.000000) scale(0.100000,-0.100000)"
fill="#ffffff" stroke="none">
<path d="M9885 12054 c-594 -30 -1034 -77 -1520 -165 -1695 -304 -3215 -1019
-4289 -2015 -832 -771 -1381 -1694 -1611 -2704 -98 -430 -140 -830 -139 -1325
0 -345 12 -504 55 -754 108 -623 302 -1066 740 -1686 325 -460 421 -624 471
-800 18 -66 22 -104 22 -215 -1 -168 -23 -251 -123 -455 -346 -703 -1060
-1202 -2090 -1460 -376 -94 -809 -155 -1211 -171 l-174 -7 74 -18 c495 -119
1116 -211 1720 -256 326 -24 1120 -24 1440 0 399 30 718 68 1072 127 1953 326
3688 1200 4777 2405 753 834 1191 1760 1331 2817 151 1146 11 2043 -445 2828
-78 136 -224 355 -395 595 -294 413 -384 600 -397 825 -10 167 24 304 125 510
268 545 781 982 1482 1262 524 210 1184 343 1805 365 l180 7 -70 17 c-116 30
-448 97 -640 128 -362 60 -697 100 -1065 127 -200 14 -957 26 -1125 18z"/>
</g>
</svg>